<svg width="24" height="24" viewBox="0 0 24 24" fill="none" xmlns="http://www.w3.org/2000/svg">
<path d="M10.6741 12.0008L0.274578 1.6012C-0.0915623 1.23506 -0.0915623 0.641431 0.274578 0.275338C0.640718 -0.0907558 1.23434 -0.0908026 1.60044 0.275338L12 10.6749L22.3995 0.275338C22.7657 -0.0908026 23.3593 -0.0908026 23.7254 0.275338C24.0915 0.641478 24.0915 1.2351 23.7254 1.6012L13.3259 12.0007L23.7254 22.4003C24.0915 22.7665 24.0915 23.3601 23.7254 23.7262C23.5423 23.9092 23.3024 24.0007 23.0624 24.0007C22.8225 24.0007 22.5826 23.9092 22.3995 23.7262L12 13.3266L1.60048 23.7262C1.41744 23.9092 1.17748 24.0007 0.937531 24.0007C0.697578 24.0007 0.457672 23.9092 0.274578 23.7262C-0.0915623 23.36 -0.0915623 22.7664 0.274578 22.4003L10.6741 12.0008Z" fill="black"/>
</svg>
